<?xml version="1.0" encoding="utf-8"?>
<!-- Generator: Adobe Illustrator 22.0.1, SVG Export Plug-In . SVG Version: 6.00 Build 0)  -->
<svg version="1.1" id="Capa_1" xmlns="http://www.w3.org/2000/svg" xmlns:xlink="http://www.w3.org/1999/xlink" x="0px" y="0px"
	 viewBox="0 0 263.3 226.4" style="enable-background:new 0 0 263.3 226.4;" xml:space="preserve">
<path d="M104.8,178.7c-2.6-0.3-4.7-0.5-6.9-0.9c-9-1.4-15.3-6.1-18.2-15c-6.1-18.6-12.3-37.1-18.2-55.8c-7.2-23-14-46.2-21.1-69.3
	c-1.8-5.9-2.9-6.3-9-5.4c-4.9,0.8-9.9,1.8-14.8,1.8c-5.9,0-10.6-2.9-13.5-8.2C1,22.1,0.7,18,1.9,13.8c0.5-2.1,1.1-4.2,2-6.1
	c0.4-0.9,1.3-1.9,2.1-2.2c8-2.5,16.2-3.9,24.6-2.8c7.4,0.9,12.7,5,15.6,12c0.8,2,1.4,4.1,2.1,6.1c2.1,6.2,4.1,12.3,6.4,18.5
	c0.3,0.7,1.7,1.4,2.6,1.4c17.4-0.2,34.7-1,52.1-0.8c37.7,0.3,75.3,1.2,113,1.7c5.6,0.1,11.3-0.5,16.9-0.3c3.4,0.1,6.8,0.6,10,1.6
	c9,2.7,13.1,9.4,11.7,18.7c-0.4,2.6-0.9,5.1-1.7,7.6c-5.9,17.6-11.8,35.2-18,52.8c-1.6,4.5-3.9,8.8-6.4,12.9
	c-4.4,7.3-11,11.5-19.5,12c-16,0.9-32,2.1-48,2.2c-23.7,0.2-47.4-0.4-71.1-0.6c-2.2,0-4.5,0-7.4,0c1.9,4.6,3.4,9,5.4,13
	c1.5,2.9,4.7,3.5,7.7,3.6c6,0.3,12,0.5,18,0.5c19.3-0.1,38.7-0.5,58-0.5c12.8,0,25.6,0.5,38.4,0.9c3.8,0.1,6.3,3,6.1,6.7
	c-0.2,3.7-2.8,5.9-6.7,5.8c-1.3,0-2.7-0.2-4-0.3c-1.3-0.1-2.7,0-4.1,0c2.2,1.4,4.4,2.7,6.3,4.2c7.5,6.1,10.2,16.1,6.7,24.1
	c-3.6,8.1-13.5,13.5-22.3,12.1c-9.9-1.5-17.5-9.1-18.5-18.5c-0.7-6.6,1.9-11.9,7.3-15.7c3.2-2.2,6.5-4.3,10.2-6.7
	c-25.8,0.4-51.3,0.7-77.6,1.1c2.2,1.7,3.9,2.9,5.4,4.2c7.1,6.3,9.4,16.7,5.4,24.4c-4.2,8.1-14.4,12.8-23.5,10.8
	c-9.3-2-16.6-10.2-17-19.3c-0.2-5.8,2-10.5,6.6-14C98.8,182.8,101.7,180.9,104.8,178.7z M58.3,51.2c0.2,0.6,0.3,1.5,0.6,2.3
	c3.1,9.7,6.3,19.4,9.2,29.1c5.3,17.3,10.5,34.5,15.7,51.8c0.6,2,1.6,2.5,3.6,2.5c19.6,0,39.2,0.5,58.8,0.2c21.4-0.3,42.7-1.5,64.1-2
	c8-0.2,13.2-4,16.4-11.2c0.7-1.6,1.5-3.1,2-4.7C234.9,102,241,84.6,247,67.2c0.9-2.6,1.4-5.4,1.8-8.1c0.5-3.3-0.3-4.4-3.5-5.2
	c-2.5-0.6-5.1-0.9-7.7-0.9c-5.3,0-10.6,0.5-15.8,0.4C177,52.8,132.3,52,87.6,51.3C77.9,51.1,68.3,51.2,58.3,51.2z M199.6,207.6
	c6.5,0.1,11.7-5.4,10.2-10.8c-1.5-5.4-6.9-9-12.4-7.8c-2.6,0.6-5.2,1.8-7.6,3.1c-1,0.6-1.9,2.2-2,3.4
	C187.1,201.8,192.8,207.5,199.6,207.6z M108.1,188.5c-1.7,0.7-5,1.8-8.1,3.4c-0.9,0.4-1.6,1.9-1.8,2.9c-0.7,4.9,2.6,10,7.6,11.9
	c5.1,1.9,10.7,0.3,13.4-4.2c0.7-1.2,1.2-2.9,1.1-4.3C120,193,115.2,188.7,108.1,188.5z M10,12.9c-1.3,7.4,1.6,11.5,8.3,10.6
	c6.1-0.8,12.2-2.3,18.2-3.5c-1.4-4.9-4.1-7-9.7-7.1C21.3,12.8,15.7,12.9,10,12.9z"/>
</svg>
