<?xml version="1.0" encoding="utf-8"?>
<!-- Generator: Adobe Illustrator 22.0.1, SVG Export Plug-In . SVG Version: 6.00 Build 0)  -->
<svg version="1.1" id="Capa_1" xmlns="http://www.w3.org/2000/svg" xmlns:xlink="http://www.w3.org/1999/xlink" x="0px" y="0px"
	 viewBox="0 0 149.4 115.5" style="enable-background:new 0 0 149.4 115.5;" xml:space="preserve">
<style type="text/css">
	.st0{fill:#FFFFFF;}
	.st1{fill:#EF8031;}
</style>
<polygon class="st0" points="39,111.6 115.6,111.3 121.5,56.5 27.7,56.5 "/>
<path class="st1" d="M39,111.6V56.8l38.1,28.9l38.4-28.6v54.1h23.7c0,0,7.1-2.8,8-8.9c0.9-6.1,0.3-0.9,0.3-0.9V21.5
	c0,0-2.7-23.3-22-13.2c-0.2,0.1-0.3,0.2-0.5,0.3c-19.7,10.8-48,35.7-48,35.7L26.4,5.8c0,0-16.7-5.8-19.7,15.1l0.6,81.5
	c0,0,1.2,5.5,7.4,8.3L39,111.6z"/>
</svg>
