<?xml version="1.0" encoding="utf-8"?>
<!-- Generator: Adobe Illustrator 22.0.1, SVG Export Plug-In . SVG Version: 6.00 Build 0)  -->
<svg version="1.1" id="Capa_1" xmlns="http://www.w3.org/2000/svg" xmlns:xlink="http://www.w3.org/1999/xlink" x="0px" y="0px"
	 viewBox="0 0 117.5 121.9" style="enable-background:new 0 0 117.5 121.9;" xml:space="preserve">
<style type="text/css">
	.st0{fill:#FFFFFF;}
	.st1{fill:#EF8031;}
</style>
<g>
	<rect x="14" y="14.6" class="st0" width="93.8" height="93.8"/>
	<g>
		<g>
			<path class="st1" d="M2.7,87.1c0-16.8,0-33.7,0-50.5c0.2-0.4,0.4-0.8,0.4-1.3c0.2-2.9,0.8-5.6,1.5-8.4
				c2.1-7.4,6.2-13.3,12.7-17.4c5.3-3.4,11.1-4.9,17.3-5.3c0.4,0,0.9,0.2,1-0.4c16.8,0,33.5,0,50.3,0c1.1,0.7,2.3,0.5,3.4,0.6
				c6.7,0.9,12.9,3.1,18.1,7.6c5.6,4.8,8.6,11,10.1,18.1c0.3,1.3,0.2,2.6,0.9,3.7c0,18.6,0,37.3,0,55.9c-0.4,0.3-0.4,0.8-0.5,1.2
				c-0.3,1.6-0.6,3.2-1,4.8c-1.9,7.5-5.9,13.6-12.4,18c-4.4,3-9.4,4.6-14.7,5.4c-0.5,0.1-1,0-1.3,0.5c-18.7,0-37.4,0-56.2,0
				c-0.2-0.3-0.6-0.4-1-0.4c-1.3-0.2-2.6-0.5-4-0.8c-5.3-1.2-10-3.5-14.1-7.2c-6.2-5.6-9.1-12.7-10.2-20.8
				C3.1,89.3,3.4,88.1,2.7,87.1z M14,60.1c0,8.9-0.1,17.8,0.1,26.7c0.1,4.1,1.2,8,3.4,11.6c3.1,5.1,8,7.7,13.7,8.9
				c4.3,0.9,8.7,0.9,13.1,0.9c12.7,0.1,25.4,0.1,38.1-0.2c2.2-0.1,4.5-0.2,6.7-0.5c9.6-1.4,15.5-6.9,17.7-16.4c1-4.4,1-9,1.1-13.5
				c0.2-13,0.1-26-0.2-38.9c-0.1-2.3-0.2-4.5-0.7-6.8c-1.1-5.3-3.2-9.9-7.7-13.2c-4.2-3-9-4.3-14-4.3c-8.5-0.1-16.9-0.3-25.4,0.2
				c-3.6,0.2-7.2,0-10.7,0c-5,0.1-10-0.3-15,0.2c-4.3,0.5-8.4,1.6-12,4.2c-5.6,4.1-7.8,9.9-8.1,16.5C13.7,43.8,14,51.9,14,60.1z"/>
			<path class="st1" d="M59.9,31.5c15.8-0.4,29.4,11.6,30.6,27.8c1.3,16.9-11.7,31.4-28.4,32.2c-16.5,0.8-30.2-11.7-31.4-27.8
				C29.5,46.6,42.8,32,59.9,31.5z M60.9,80.8C71.8,80.6,80.1,71.9,80,61c-0.2-10.4-9-18.9-19.5-18.8c-10.7,0.2-19.3,8.9-19.1,19.5
				C41.5,72.5,50.2,80.9,60.9,80.8z"/>
			<path class="st1" d="M91.5,37.8c-4,0-7.2-3.3-7.2-7.2c0-3.9,3.4-7.3,7.4-7.2c3.8,0.1,7.1,3.4,7.1,7.3
				C98.8,34.6,95.5,37.8,91.5,37.8z"/>
		</g>
	</g>
</g>
</svg>
