<?xml version="1.0" encoding="utf-8"?>
<!-- Generator: Adobe Illustrator 22.0.1, SVG Export Plug-In . SVG Version: 6.00 Build 0)  -->
<svg version="1.1" id="Capa_1" xmlns="http://www.w3.org/2000/svg" xmlns:xlink="http://www.w3.org/1999/xlink" x="0px" y="0px"
	 viewBox="0 0 117.5 121.9" style="enable-background:new 0 0 117.5 121.9;" xml:space="preserve">
<style type="text/css">
	.st0{fill:#EF8031;}
	.st1{fill:#FFFFFF;}
</style>
<g>
	<path class="st0" d="M100,117.3H21.2c-8.9,0-16.1-7.2-16.1-16.1V22.4c0-8.9,7.2-16.1,16.1-16.1H100c8.9,0,16.1,7.2,16.1,16.1v78.8
		C116.2,110.1,109,117.3,100,117.3z"/>
	<path class="st1" d="M67.8,94.8c0-6.7,0-13.5,0-20.2c0-0.3,0-0.6,0-0.9c0-0.3,0.2-0.5,0.5-0.5c0.3,0,0.5,0,0.8,0
		c4.1,0,8.1,0,12.2,0c0.5,0,0.9,0,1-0.7c0.6-4.9,1.2-9.8,1.8-14.7c0.1-1,0.1-1-0.9-1c-4.7,0-9.4,0-14.1,0c-1.5,0-1.5,0-1.5-1.4
		c0-2.9,0-5.9,0-8.8c0-0.7,0-1.4,0.1-2.2c0.3-2.5,1.6-4.3,3.9-5.3c1.5-0.7,3-0.9,4.6-0.9c2.6,0,5.1,0,7.7,0c1,0,1.1-0.1,1.1-1.1
		c0-4.2,0-8.4,0-12.6c0-1.7,0-1.7-1.7-1.7c-3.7-0.1-7.4-0.1-11.1-0.2c-1.9-0.1-3.7-0.1-5.5,0.2c-5.5,0.8-9.9,3.5-12.8,8.4
		c-2.2,3.7-3.2,7.8-3.3,12c-0.1,4.2,0,8.3,0,12.5c0,1.1,0,1.1-1.1,1.1c-4.2,0-8.4,0-12.6,0c-1,0-1.1,0-1.1,1.1c0,4.7,0,9.5,0,14.2
		c0,1.1,0,1.1,1.1,1.1c4.1,0,8.1,0,12.2,0c0.3,0,0.5,0,0.8,0c0.4,0,0.6,0.2,0.6,0.6c0,0.3,0,0.6,0,0.9c0,13.4,0,26.8,0,40.2
		c0,1.2,0,1.2,1.2,1.2c4.9,0,9.7,0,14.6,0c1.2,0,1.2,0,1.2-1.3C67.8,108.3,67.8,101.6,67.8,94.8z"/>
</g>
</svg>
