<?xml version="1.0" encoding="utf-8"?>
<!-- Generator: Adobe Illustrator 22.0.1, SVG Export Plug-In . SVG Version: 6.00 Build 0)  -->
<svg version="1.1" id="Capa_1" xmlns="http://www.w3.org/2000/svg" xmlns:xlink="http://www.w3.org/1999/xlink" x="0px" y="0px"
	 viewBox="0 0 374.6 242.4" style="enable-background:new 0 0 374.6 242.4;" xml:space="preserve">
<style type="text/css">
	.st0{fill:#F7CC00;}
	.st1{fill:none;stroke:#1D1D1B;stroke-width:0.2873;stroke-miterlimit:10;}
	.st2{fill:#EE8030;}
	.st3{fill:#217AB9;}
</style>
<g>
	<g>
		<g>
			<path class="st0" d="M75,238.3c-3.4,0-6.3-0.8-8.5-2.5c-2.3-1.7-3.4-4-3.4-6.9c0-7.9,8.1-13.1,24.2-15.5c0.6-2.3,1.1-4.5,1.4-6.6
				c-3.2,1.9-6.5,2.9-10,2.9c-6.4,0-11.5-2.3-15.4-6.9c-3.9-4.6-5.9-10.7-5.9-18.1c0-7.4,1.4-14.3,4.3-20.6
				c2.9-6.3,7-11.5,12.4-15.6c5.4-4.1,11.1-6.2,17.2-6.2c6.1,0,11,1.5,14.9,4.5c3.9,3,5.8,6.8,5.8,11.4c0,2.7-0.5,5-1.4,6.7
				c-0.5,0.1-1.3,0.1-2.3,0.1c-5.3,0-9.3-0.9-11.9-2.6l0.1-11.1c-1.6-1.4-3.8-2.2-6.5-2.2c-4.2,0-7.9,3.2-11.1,9.6
				c-3.2,6.4-4.8,14.2-4.8,23.4c0,6.1,1,10.6,3,13.5c2,2.9,4.4,4.3,7.1,4.3c4.1,0,7.8-2.1,11.1-6.2c3.3-4.1,5.7-9,7.1-14.7l5.6,0.9
				c-2.6,19.6-6.6,34.3-11.8,43.9C90.8,233.5,83.8,238.3,75,238.3z M69.7,228.6c0,1.9,1.6,2.9,4.8,2.9c1.6,0,3.6-1,5.9-3
				c2.3-2,4-4.6,5.1-7.9c-4,0.3-7.6,1.3-10.9,2.7C71.4,224.7,69.7,226.5,69.7,228.6z"/>
			<path class="st0" d="M147.8,150.1c0,3.6-1.5,11.8-4.4,24.7c-2.9,12.9-4.4,21.1-4.4,24.5c0,3.5,1.3,5.2,3.8,5.2
				c4.4,0,9.3-1.9,14.8-5.7c0.4-2.5,1.4-7.4,3-14.9c3.7-17.3,5.6-29.2,5.8-35.7c0-1.2-0.1-2.1-0.2-2.9c5.5-2.1,11-3.2,16.6-3.2
				c0.2,0.4,0.3,1.4,0.3,3.1c0,3.8-1.7,13.5-5,29.1c-3.3,15.6-5,25.6-5,29.8c0,1.9,0.3,2.8,0.9,2.8c0.6,0,2.7-0.9,6.3-2.7l1.9,3.8
				c-6.1,5.6-11.5,8.3-16.3,8.3c-2.6,0-4.8-0.8-6.5-2.5c-1.7-1.6-2.6-4-2.7-7c-9.3,6.3-16.9,9.5-23,9.5c-3.4,0-6.1-1.1-8.1-3.2
				c-2-2.2-3-5.1-3-8.9c0-3.8,1.4-11.7,4.2-23.7c2.8-12,4.2-20.7,4.2-26c0-1.1-0.3-2.4-1-4c-0.7-1.5-1.4-2.8-2.1-3.8l-1-1.4l0.2-1.5
				c3.8-1.2,10.2-1.7,19.1-1.7C147.3,143.9,147.8,146.6,147.8,150.1z"/>
			<path class="st0" d="M195.7,213.9c-0.5,1.5-1.6,2.3-3.2,2.3c-1.7,0-3.6-0.9-5.7-2.8c2.1-6,6.4-15.8,13.1-29.2
				c6.7-13.4,11-23.4,13-30.1c0.3-1.1,0.4-1.9,0.4-2.3c0-1-0.8-2.6-2.3-4.7l-0.8-1.1l0.2-1.3c5.8-1.6,12.3-2.5,19.3-2.5l6.3,0.4
				c0.8,1,1.3,2.6,1.7,4.7c1.1,5.2,1.6,18.6,1.6,40.2c0,8.4,0.7,14.3,2.2,17.7c0.5,1.3,1.1,2,1.6,2c0.5,0,2.2-0.7,5-2.1l1.3-0.6
				l2.1,3.7c-2.6,2.5-5.5,4.5-8.7,6c-3.2,1.5-6.1,2.2-8.8,2.2c-6.9,0-10.4-5.4-10.4-16.2v-8.1c-1.8-0.4-4.5-0.6-8.1-0.6
				c-3.6,0-7.6,0.3-11.9,1C200.2,200.6,197.5,207.7,195.7,213.9z M223.9,185.2l0.1-11.9c0-10.4-0.4-17.5-1.3-21.2
				c-0.5,0-1,0.1-1.2,0.2c-1.9,5.3-3.7,9.8-5.4,13.4c-1.7,3.7-3.5,7.6-5.5,11.7c-2,4.2-3.2,6.7-3.7,7.8H223.9z"/>
			<path class="st0" d="M286.1,150.1c0,3.6-1.5,11.8-4.4,24.7c-2.9,12.9-4.4,21.1-4.4,24.5c0,3.5,1.3,5.2,3.8,5.2
				c4.4,0,9.3-1.9,14.8-5.7c0.4-2.5,1.4-7.4,3-14.9c3.7-17.3,5.6-29.2,5.8-35.7c0-1.2-0.1-2.1-0.2-2.9c5.5-2.1,11-3.2,16.6-3.2
				c0.2,0.4,0.3,1.4,0.3,3.1c0,3.8-1.7,13.5-5,29.1c-3.3,15.6-5,25.6-5,29.8c0,1.9,0.3,2.8,0.9,2.8c0.6,0,2.7-0.9,6.3-2.7l1.9,3.8
				c-6.1,5.6-11.5,8.3-16.3,8.3c-2.6,0-4.8-0.8-6.5-2.5c-1.7-1.6-2.6-4-2.7-7c-9.3,6.3-16.9,9.5-23,9.5c-3.4,0-6.1-1.1-8.1-3.2
				c-2-2.2-3-5.1-3-8.9c0-3.8,1.4-11.7,4.2-23.7c2.8-12,4.2-20.7,4.2-26c0-1.1-0.3-2.4-1-4c-0.7-1.5-1.4-2.8-2.1-3.8l-1-1.4l0.2-1.5
				c3.8-1.2,10.2-1.7,19.1-1.7C285.6,143.9,286.1,146.6,286.1,150.1z"/>
		</g>
	</g>
	<g>
		<path class="st1" d="M75,238.5c-3.4,0-6.3-0.8-8.5-2.5c-2.3-1.7-3.4-4-3.4-6.9c0-7.9,8.1-13.1,24.2-15.5c0.6-2.3,1.1-4.5,1.4-6.6
			c-3.2,1.9-6.5,2.9-10,2.9c-6.4,0-11.5-2.3-15.4-6.9c-3.9-4.6-5.9-10.7-5.9-18.1s1.4-14.3,4.3-20.6c2.9-6.3,7-11.5,12.4-15.6
			c5.4-4.1,11.1-6.2,17.2-6.2c6.1,0,11,1.5,14.9,4.5c3.9,3,5.8,6.8,5.8,11.4c0,2.7-0.5,5-1.4,6.7c-0.5,0.1-1.3,0.1-2.3,0.1
			c-5.3,0-9.3-0.9-11.9-2.6l0.1-11.1c-1.6-1.4-3.8-2.2-6.5-2.2c-4.2,0-7.9,3.2-11.1,9.6c-3.2,6.4-4.8,14.2-4.8,23.4
			c0,6.1,1,10.6,3,13.5c2,2.9,4.4,4.3,7.1,4.3c4.1,0,7.8-2.1,11.1-6.2c3.3-4.1,5.7-9,7.1-14.7l5.6,0.9c-2.6,19.6-6.6,34.3-11.8,43.9
			C90.8,233.7,83.8,238.5,75,238.5z M69.7,228.7c0,1.9,1.6,2.9,4.8,2.9c1.6,0,3.6-1,5.9-3c2.3-2,4-4.6,5.1-7.9
			c-4,0.3-7.6,1.3-10.9,2.7C71.4,224.9,69.7,226.7,69.7,228.7z"/>
		<path class="st1" d="M147.8,150.3c0,3.6-1.5,11.8-4.4,24.7c-2.9,12.9-4.4,21.1-4.4,24.5c0,3.5,1.3,5.2,3.8,5.2
			c4.4,0,9.3-1.9,14.8-5.7c0.4-2.5,1.4-7.4,3-14.9c3.7-17.3,5.6-29.2,5.8-35.7c0-1.2-0.1-2.1-0.2-2.9c5.5-2.1,11-3.2,16.6-3.2
			c0.2,0.4,0.3,1.4,0.3,3.1c0,3.8-1.7,13.5-5,29.1c-3.3,15.6-5,25.6-5,29.8c0,1.9,0.3,2.8,0.9,2.8c0.6,0,2.7-0.9,6.3-2.7l1.9,3.8
			c-6.1,5.6-11.5,8.3-16.3,8.3c-2.6,0-4.8-0.8-6.5-2.5c-1.7-1.6-2.6-4-2.7-7c-9.3,6.3-16.9,9.5-23,9.5c-3.4,0-6.1-1.1-8.1-3.2
			c-2-2.2-3-5.1-3-8.9c0-3.8,1.4-11.7,4.2-23.7c2.8-12,4.2-20.7,4.2-26c0-1.1-0.3-2.4-1-4c-0.7-1.5-1.4-2.8-2.1-3.8l-1-1.4l0.2-1.5
			c3.8-1.2,10.2-1.7,19.1-1.7C147.3,144.1,147.8,146.7,147.8,150.3z"/>
		<path class="st1" d="M195.7,214.1c-0.5,1.5-1.6,2.3-3.2,2.3c-1.7,0-3.6-0.9-5.7-2.8c2.1-6,6.4-15.8,13.1-29.2
			c6.7-13.4,11-23.4,13-30.1c0.3-1.1,0.4-1.9,0.4-2.3c0-1-0.8-2.6-2.3-4.7l-0.8-1.1l0.2-1.3c5.8-1.6,12.3-2.5,19.3-2.5l6.3,0.4
			c0.8,1,1.3,2.6,1.7,4.7c1.1,5.2,1.6,18.6,1.6,40.2c0,8.4,0.7,14.3,2.2,17.7c0.5,1.3,1.1,2,1.6,2c0.5,0,2.2-0.7,5-2.1l1.3-0.6
			l2.1,3.7c-2.6,2.5-5.5,4.5-8.7,6c-3.2,1.5-6.1,2.2-8.8,2.2c-6.9,0-10.4-5.4-10.4-16.2v-8.1c-1.8-0.4-4.5-0.6-8.1-0.6
			c-3.6,0-7.6,0.3-11.9,1C200.2,200.8,197.5,207.9,195.7,214.1z M223.9,185.4l0.1-11.9c0-10.4-0.4-17.5-1.3-21.2
			c-0.5,0-1,0.1-1.2,0.2c-1.9,5.3-3.7,9.8-5.4,13.4c-1.7,3.7-3.5,7.6-5.5,11.7c-2,4.2-3.2,6.7-3.7,7.8H223.9z"/>
		<path class="st1" d="M286.1,150.3c0,3.6-1.5,11.8-4.4,24.7c-2.9,12.9-4.4,21.1-4.4,24.5c0,3.5,1.3,5.2,3.8,5.2
			c4.4,0,9.3-1.9,14.8-5.7c0.4-2.5,1.4-7.4,3-14.9c3.7-17.3,5.6-29.2,5.8-35.7c0-1.2-0.1-2.1-0.2-2.9c5.5-2.1,11-3.2,16.6-3.2
			c0.2,0.4,0.3,1.4,0.3,3.1c0,3.8-1.7,13.5-5,29.1c-3.3,15.6-5,25.6-5,29.8c0,1.9,0.3,2.8,0.9,2.8c0.6,0,2.7-0.9,6.3-2.7l1.9,3.8
			c-6.1,5.6-11.5,8.3-16.3,8.3c-2.6,0-4.8-0.8-6.5-2.5c-1.7-1.6-2.6-4-2.7-7c-9.3,6.3-16.9,9.5-23,9.5c-3.4,0-6.1-1.1-8.1-3.2
			c-2-2.2-3-5.1-3-8.9c0-3.8,1.4-11.7,4.2-23.7c2.8-12,4.2-20.7,4.2-26c0-1.1-0.3-2.4-1-4c-0.7-1.5-1.4-2.8-2.1-3.8l-1-1.4l0.2-1.5
			c3.8-1.2,10.2-1.7,19.1-1.7C285.6,144.1,286.1,146.7,286.1,150.3z"/>
	</g>
	<path class="st2" d="M66.5,117l0.7-32.6c0-8.6-0.5-14.2-1.5-16.7l-5-7.8l0.3-1.5c4.9-1.1,11.9-1.6,21-1.6c1.3,2,2,5.7,2,11.1
		c0,5.4-0.3,12.6-1,21.7c-0.7,9.1-1,16.1-1,21c0,4.9,1.2,7.4,3.5,7.4c1.4,0,3.4-1.1,6-3.3c2.6-2.2,4.8-4.6,6.7-7.3
		c1.5-15.5,2.3-26,2.3-31.4c0-5.4-0.8-10.5-2.3-15.1c3.6-1.9,9.6-3.3,17.9-4.2c0.8,2.5,1.1,6,1.1,10.4c0,4.5-0.7,12.3-2.1,23.4
		c-1.4,11.1-2.1,18.5-2.1,22.1s1,5.4,3.1,5.4c2.1,0,4.9-2,8.5-6c3.6-4,6.8-8.9,9.8-14.9c3-5.9,4.6-11.3,5-16.1l-10.9-6.4
		c0.5-4.1,1.5-7.7,2.9-10.6c1.5-3,2.8-5,4.1-5.9l1.9-1.4c4.2,0,7.4,1.1,9.6,3.2c2.2,2.2,3.3,4.7,3.3,7.7c0,5.6-1.4,12-4.2,19.4
		c-2.8,7.4-6.2,14.3-10.3,20.8c-4.1,6.4-8.7,11.9-13.9,16.4c-5.2,4.5-10,6.7-14.4,6.7c-2.6,0-4.9-1.2-6.9-3.7
		c-2-2.5-3.1-5.6-3.1-9.5c-3,4.1-6.2,7.3-9.6,9.7c-3.4,2.3-6.6,3.5-9.7,3.5c-3.1,0-5.8-1.3-8.1-3.9C67.6,124.5,66.5,121.1,66.5,117"
		/>
	<path class="st2" d="M233.9,117l0.7-32.6c0-8.6-0.5-14.2-1.5-16.7l-5-7.8l0.3-1.5c4.9-1.1,11.9-1.6,21-1.6c1.3,2,2,5.7,2,11.1
		c0,5.4-0.3,12.6-1,21.7c-0.7,9.1-1,16.1-1,21c0,4.9,1.2,7.4,3.5,7.4c1.4,0,3.4-1.1,6-3.3c2.6-2.2,4.8-4.6,6.7-7.3
		c1.5-15.5,2.3-26,2.3-31.4c0-5.4-0.8-10.5-2.3-15.1c3.6-1.9,9.6-3.3,17.9-4.2c0.8,2.5,1.1,6,1.1,10.4c0,4.5-0.7,12.3-2.1,23.4
		c-1.4,11.1-2.1,18.5-2.1,22.1s1,5.4,3.1,5.4c2.1,0,4.9-2,8.5-6c3.6-4,6.8-8.9,9.8-14.9c3-5.9,4.6-11.3,5-16.1l-10.9-6.4
		c0.5-4.1,1.5-7.7,2.9-10.6c1.5-3,2.8-5,4.1-5.9l1.9-1.4c4.2,0,7.4,1.1,9.6,3.2c2.2,2.2,3.3,4.7,3.3,7.7c0,5.6-1.4,12-4.2,19.4
		c-2.8,7.4-6.2,14.3-10.3,20.8c-4.1,6.4-8.7,11.9-13.9,16.4c-5.2,4.5-10,6.7-14.4,6.7c-2.6,0-4.9-1.2-6.9-3.7
		c-2-2.5-3.1-5.6-3.1-9.5c-3,4.1-6.2,7.3-9.6,9.7c-3.4,2.3-6.6,3.5-9.7,3.5s-5.8-1.3-8.1-3.9C235,124.5,233.9,121.1,233.9,117"/>
	<path class="st2" d="M197.1,102c0.2-0.1,0.4-0.2,0.6-0.2c2.6-1.2,5.3,0.3,5.4,3.2c0,1.3-0.3,2.7-0.8,3.9c-0.7,1.5-1.7,2.9-2.7,4.6
		c0.4-0.2,0.8-0.3,1-0.4c2.6-1.6,4.3-4,5.9-6.4c1-1.4,1.9-2.9,2.9-4.3c0.3-0.4,0.8-0.5,1.2-0.8c0.1,0.5,0.3,1,0.1,1.5
		c-1.9,6.8-5.5,12.1-12.2,14.9c-0.2,0.1-0.5,0.4-0.5,0.6c0,1.1-0.7,1.7-1.6,2c-0.9,0.3-1.8,0.5-2.7,0.6c-4.7,0.5-9.5,0.7-14.2,0.1
		c-1-0.1-2-0.6-2.9-1.1c-1.1-0.6-1.1-1.3,0-2c0.2-0.1,0.3-0.2,0.5-0.4c-0.8-0.9-1.6-1.8-2.3-2.7c-1.8-2.2-3.6-4.5-4.6-7.2
		c-0.3-0.9-0.5-2-0.6-2.9c-0.1-1.4,0.7-2.4,2-2.9c1.4-0.5,2.8-0.7,4.3,0.4c0-0.4-0.1-0.6-0.1-0.9c0-0.8-0.1-1.7,0.1-2.5
		c0.7-2.9,1.4-5.7,2.1-8.5c0.3-1.4,1.3-2.5,0.6-4.2c-0.6-1.3,0.7-2.5,0.9-3.9c0.1-0.5,0-1.1-0.3-1.5c-1.1-1.6-2.2-3.1-3.5-4.8
		c0,1.2,0,2.4,0,3.6c0,0.9,0,1.8-0.2,2.7c-0.3,1-0.8,1.1-1.6,0.4c-0.3-0.2-0.7-0.4-1-0.6c-1.8-0.9-3.1-2.3-4-4.1
		c-0.5-0.9-0.5-1.9,0.1-2.8c1.5-2.3,2.9-4.6,5.3-6.2c1-0.7,1.9-1.7,2.8-2.6c2-2.1,4.5-2.9,7.3-2.3c0.5,0.1,1-0.1,1.5-0.1
		c0.5,0,1-0.1,1.4,0c2.2,0.7,4.4,1.3,6.5,2.1c1,0.4,1.8,1,2.7,1.6c1.1,0.8,1.5,1.8,1.3,3.2c-0.2,1.3-0.7,2.6-1.8,3.4
		c-0.9,0.8-1.1,1.7-0.8,2.8c0.1,0.5,0,1,0,1.5c-0.5-0.2-1.2-0.3-1.5-0.7c-0.9-1.1-1.7-2.3-2.5-3.5c0,0.1-0.1,0.3-0.1,0.5
		c0,0.6,0.1,1.3,0,1.9c-0.3,2.1,0.6,4,0.9,5.9c0.2,1,1,1.6,1.5,1.6c0.6-0.4,0.9-0.8,1.3-1c2.6-1.2,4.9-2.7,6.3-5.2
		c3.2-5.4,1.5-12.2-4-15.6c-4.9-3.1-10.3-3.9-16-3.1c-6.5,0.9-12.3,3.5-17.4,7.7c-6.8,5.7-10.4,13-10.8,21.9
		c-0.3,7.9,1.6,15.1,6.4,21.5c5.6,7.4,13.2,11.5,22.4,12.9c7.9,1.2,15.2-0.6,21.9-4.8c8.6-5.4,14.3-13,16.5-23
		c1.4-6.7,0.7-13.2-1.6-19.6c-0.8-2.2-2-4.3-3-6.4c-0.5-0.9-1.3-1.4-2.2-1.9c-2.1-1.1-4.1-2.2-6.2-3.4c-0.5-0.3-0.9-0.8-1.3-1.3
		c-1.3-1.6-0.8-3.7,1.1-4.5c2.1-1,3.9-0.7,5.5,1c1.2,1.3,2.2,2.8,3.1,4.3c1.4,2.5,2.7,5,4,7.5c3.4,6.2,4.6,12.9,4,19.9
		c-0.7,8.2-3.7,15.6-8.8,22.1c-4.7,5.8-10.6,9.7-17.8,11.7c-6.4,1.8-12.8,2-19.3,0.6c-7.4-1.5-13.5-5.2-18.4-11
		c-4.4-5.2-7.2-11.2-8.8-17.8c-1.7-7.2-0.8-14.1,2.4-20.7c4-8.3,10.2-14.4,18.8-17.8c7-2.8,14.2-3.2,21.4-1.1
		c4.2,1.2,7.8,3.5,10.3,7.2c3.6,5.6,3,14.8-4,19.6c-1,0.7-2,1.2-3.1,1.8c-0.6,0.3-1.1,0.5-1.8,0.2c-0.9-0.3-1.6,0.4-1.4,1.4
		c0.1,0.4,0.4,0.8,0.6,1.3c1,3.1,2.1,6.2,3,9.3C197.4,99.2,197.1,100.6,197.1,102 M185.7,88.6c-0.4-0.2-0.7-0.3-1-0.4
		c-0.3,0-0.8,0-1,0.2c-0.2,0.1-0.2,0.6-0.2,0.9c0,0.3,0,0.7,0.1,1c0.1,0.3,0.1,0.7,0.3,0.8c0.2,0.2,0.7,0.2,0.9,0.1
		c1.1-0.7,2.1-0.7,3.2-0.2c0.3,0.1,0.7,0.1,0.9-0.1c0.2-0.2,0.2-0.6,0.3-1c0-0.3,0-0.6-0.1-0.9c-0.1-0.3-0.1-0.8-0.4-0.9
		c-0.2-0.2-0.7,0-1,0c-0.2,0-0.4,0.2-0.7,0.4c-0.2-0.9,0.1-1.2,0.9-1.3c1.5-0.1,2.9-0.4,4.4-0.6c0.4-0.1,0.9-0.1,0.7-0.7
		c-0.3-0.8-0.1-1.8-1.1-2.2c0,0-0.1,0-0.2,0c-3.6,0.8-7.2,0.7-10.9,0.7c-1.7,0-1.7,0-1.7,1.7c0,0.8,0.3,1.2,1.1,1.2
		c1.5,0,3.1,0.1,4.6,0.1C185.7,87.3,185.8,87.7,185.7,88.6 M214.5,65.9c0-0.2,0-0.3,0-0.4c-0.7-2.4-2.2-4.4-4.4-5.7
		c-0.7-0.4-1.6-0.2-2.3,0.3c-0.6,0.4-0.7,1-0.2,1.6c1.8,1.8,3.9,3.3,6.3,4.3C214.2,65.9,214.3,65.9,214.5,65.9"/>
	<g>
		<g>
			<g>
				<path class="st3" d="M16,43.5c0.6,1.6,0.9,2.3,1.5,3.9c0.3,0.9,0.6,1.4,0.9,1.6c0.3,0.2,0.8,0.2,1.4,0c0.7-0.3,1.2-0.6,1.4-1
					c0.3-0.4,0.4-1,0.3-1.6c0-0.4,0.1-0.7,0.4-0.8s0.6-0.1,0.9,0.1c0.3,0.2,0.5,0.5,0.7,0.9c0.3,0.7,0.3,1.6,0,2.6
					c-0.1,0.3-0.2,0.5-0.3,0.7c-0.1,0.1-0.2,0.2-0.4,0.3c-0.8,0.2-1.2,0.3-2,0.5c-2.5,0.9-3.7,1.4-6.2,2.4c-0.4,0.2-0.7,0.2-0.9,0.2
					c-0.3,0-0.5-0.2-0.6-0.4c-0.1-0.2-0.1-0.3,0-0.4c0-0.1,0.2-0.3,0.4-0.6c0.3-0.3,0.4-0.6,0.4-0.9c0-0.3-0.2-0.9-0.7-2.1
					c-0.2-0.5-0.5-1.3-0.9-2.2c-0.4-0.9-0.7-1.6-0.9-2.1c-0.2-0.4-0.3-0.7-0.5-0.9c-0.1-0.1-0.3-0.2-0.6-0.2c-0.4,0-0.7,0-0.9,0
					c-0.2-0.1-0.4-0.2-0.5-0.4c-0.2-0.4,0.1-0.9,0.7-1.4c0.5-0.4,1.3-0.8,2.4-1.3c1.2-0.5,2.1-0.7,2.7-0.8c0.8-0.1,1.3,0,1.5,0.5
					c0.1,0.2,0.1,0.3,0,0.5c-0.1,0.1-0.3,0.3-0.6,0.6c-0.2,0.2-0.3,0.4-0.2,0.7C15.5,42.2,15.7,42.7,16,43.5z"/>
				<path class="st3" d="M26.8,38.8c1.1-0.4,2-0.4,2.9-0.2c0.5,0.1,0.9,0.3,1.1,0.6c0.3,0.3,0.5,0.7,0.7,1.3
					c0.2,0.5,0.3,0.8,0.4,1.3c0.3,0.9,0.6,1.4,0.8,1.7c0.1,0.1,0.2,0.2,0.3,0.2s0.2,0,0.4,0c0.2,0,0.3,0.1,0.4,0.3
					c0.1,0.3,0.1,0.6-0.1,1c-0.1,0.4-0.3,0.7-0.6,1.1c-0.4,0.4-0.8,0.7-1.3,0.9c-0.6,0.2-1.2,0.2-1.7-0.1c-0.2-0.1-0.3-0.1-0.4-0.1
					c-0.1,0-0.3,0.2-0.4,0.4c-0.4,0.6-1,1.1-1.8,1.3c-0.8,0.3-1.5,0.3-2.1,0.2c-0.4-0.1-0.7-0.3-1-0.5c-0.3-0.3-0.5-0.6-0.7-1
					c-0.2-0.6-0.2-1.2,0.2-1.8c0.5-1,1.6-1.8,3.1-2.3c0.3-0.1,0.6-0.2,0.6-0.3c0.1-0.1,0.1-0.3,0-0.5c-0.2-0.6-0.4-1-0.7-1.2
					c-0.2-0.2-0.5-0.3-0.8-0.2c-0.2,0.1-0.3,0.2-0.4,0.3c-0.1,0.2-0.2,0.4-0.3,0.8c-0.3,0.9-0.7,1.5-1.3,1.7c-0.3,0.1-0.6,0.1-0.8,0
					c-0.2-0.1-0.4-0.3-0.5-0.5c-0.1-0.3-0.1-0.6,0-0.9c0.1-0.4,0.4-0.7,0.7-1.1C24.6,39.9,25.6,39.3,26.8,38.8z M27.9,44
					c-0.3,0.1-0.5,0.3-0.6,0.6c-0.1,0.3-0.1,0.6,0,0.8c0.1,0.3,0.2,0.5,0.4,0.6c0.2,0.1,0.4,0.1,0.6,0.1c0.5-0.2,0.6-0.6,0.3-1.4
					c-0.1-0.3-0.2-0.5-0.3-0.6C28.3,43.9,28.1,43.9,27.9,44z"/>
				<path class="st3" d="M42.7,35.3c0.5-0.1,0.7-0.2,1.1-0.4c0.2-0.1,0.3-0.1,0.4,0c0.1,0,0.2,0.1,0.2,0.2c0.1,0.4,0.1,0.6,0.2,1.1
					c0.1,0.2,0.1,0.4,0,0.4c0,0.1-0.1,0.1-0.3,0.2c0,0-0.1,0-0.3,0.1c-0.1,0-0.2,0.1-0.3,0.1c-0.3,0.1-0.4,0.2-0.4,0.4
					c0,0.2,0,0.5,0.2,0.9c0.2,0.6,0.4,1.1,0.7,1.5c0.1,0.2,0.2,0.3,0.4,0.3c0.1,0.1,0.3,0.1,0.6,0.1c0.6,0,0.9,0.2,1.1,0.6
					c0.1,0.4-0.1,0.8-0.6,1.2c-0.6,0.4-1.5,0.8-2.9,1.2c-2.1,0.7-3.2,0.6-3.5-0.2c-0.1-0.2-0.1-0.4,0-0.5c0.1-0.1,0.2-0.3,0.5-0.5
					c0.3-0.2,0.4-0.6,0.3-1c-0.1-0.6-0.2-1.2-0.4-1.9c-0.1-0.3-0.2-0.5-0.4-0.5c-0.1-0.1-0.4-0.1-0.6,0c-0.3,0.1-0.5,0.2-0.6,0.2
					c-0.1,0-0.2-0.1-0.2-0.2c-0.1-0.4-0.2-0.7-0.3-1.1c0-0.2-0.1-0.3,0-0.4c0-0.1,0.2-0.1,0.4-0.2c0.2-0.1,0.3-0.2,0.2-0.4
					c0-0.1-0.2-0.2-0.4-0.5c-0.4-0.4-0.7-0.8-0.9-1.3c-0.2-0.7-0.2-1.4,0.2-2c0.5-0.9,1.5-1.6,2.9-2c1.2-0.4,2.2-0.4,3-0.1
					c0.7,0.2,1.1,0.6,1.2,1.1c0.1,0.4,0.1,0.7-0.1,1.1c-0.2,0.3-0.5,0.6-0.9,0.7c-0.4,0.1-0.9,0.1-1.4,0c-0.1,0-0.4-0.2-0.9-0.5
					c-0.3-0.2-0.7-0.2-0.9-0.1c-0.2,0.1-0.3,0.2-0.4,0.3c-0.1,0.2-0.1,0.3,0,0.5c0.1,0.5,0.8,0.8,1.8,1c0.3,0.1,0.6,0.1,0.7,0.2
					c0.1,0.1,0.3,0.2,0.4,0.3C42.4,35.3,42.5,35.3,42.7,35.3z"/>
				<path class="st3" d="M54.3,35.2c-1.7,0.5-2.6,0.8-4.3,1.3c-0.2,0.1-0.3,0.2-0.2,0.3c0.1,0.4,0.4,0.7,1,0.9
					c0.5,0.2,1,0.2,1.5,0.1c0.3-0.1,0.6-0.2,0.9-0.4c0.3-0.2,0.6-0.4,0.8-0.7c0.2-0.2,0.3-0.3,0.4-0.4c0.2,0,0.3,0,0.5,0.1
					c0.2,0.1,0.3,0.3,0.4,0.5c0.1,0.4,0,0.9-0.5,1.4c-0.8,1-1.8,1.6-3,2c-1.3,0.4-2.4,0.3-3.5-0.1c-0.5-0.2-1-0.5-1.4-0.9
					c-0.6-0.5-0.9-1.2-1.2-1.9c-0.3-1-0.3-1.9,0.1-2.9c0.3-0.8,0.9-1.5,1.6-2.1c0.5-0.4,1.2-0.8,1.9-1c1.2-0.3,2.2-0.3,3.2,0.1
					c0.5,0.2,0.9,0.5,1.3,0.8c0.4,0.4,0.7,0.8,0.8,1.3c0.1,0.4,0.1,0.7,0,1C54.7,34.9,54.5,35.1,54.3,35.2z M49.8,34.8
					c0.4-0.1,0.6-0.2,0.9-0.3c0.4-0.1,0.5-0.3,0.4-0.7c-0.1-0.3-0.3-0.5-0.5-0.7c-0.2-0.1-0.5-0.2-0.8-0.1c-0.3,0.1-0.6,0.3-0.7,0.6
					C49,34,49,34.2,49,34.5c0.1,0.2,0.1,0.3,0.2,0.3C49.4,34.8,49.5,34.8,49.8,34.8z"/>
				<path class="st3" d="M60.1,30.3c0.3,1.1,0.5,1.7,0.8,2.8c0.3,1.2,0.6,2,0.7,2.1c0.1,0.2,0.3,0.3,0.6,0.3c0.2,0,0.4,0.1,0.5,0.1
					c0.1,0.1,0.2,0.2,0.2,0.3c0.1,0.2,0,0.4-0.1,0.6c-0.1,0.2-0.3,0.4-0.5,0.5c-0.4,0.2-1.1,0.5-2.1,0.8c-1.2,0.3-2,0.5-2.5,0.4
					c-0.2,0-0.4-0.1-0.6-0.2c-0.2-0.1-0.3-0.3-0.4-0.4c0-0.1,0-0.3,0-0.4c0.1-0.1,0.2-0.2,0.4-0.4c0.2-0.2,0.3-0.5,0.2-0.9
					c-0.1-0.8-0.4-1.9-0.8-3.3c-0.4-1.4-0.7-2.3-0.9-2.7c-0.2-0.4-0.5-0.6-0.9-0.7c-0.3-0.1-0.5-0.1-0.6-0.2
					c-0.1-0.1-0.2-0.2-0.3-0.4c-0.1-0.3,0-0.6,0.2-0.9c0.2-0.3,0.6-0.6,1.2-1c0.4-0.2,0.9-0.5,1.6-0.8c0.6-0.3,1.1-0.5,1.4-0.6
					c0.5-0.1,0.8,0.1,1,0.7c0.1,0.2,0.1,0.6,0.3,1.3C59.7,28.5,59.9,29.4,60.1,30.3z"/>
				<path class="st3" d="M66.5,27.3c0.5,2,0.8,3.1,1.3,5.1c0.1,0.4,0.2,0.7,0.3,0.9c0.1,0.2,0.3,0.3,0.6,0.4
					c0.2,0.1,0.4,0.2,0.5,0.2c0.1,0.1,0.1,0.2,0.2,0.3c0.2,0.8-0.7,1.4-2.7,1.9c-1.1,0.3-1.9,0.4-2.6,0.4c-0.2,0-0.4-0.1-0.6-0.2
					c-0.2-0.1-0.3-0.3-0.3-0.4c0-0.2,0-0.3,0-0.4c0-0.1,0.2-0.3,0.4-0.6c0.2-0.2,0.2-0.4,0.2-0.8c0-0.3-0.1-0.8-0.2-1.4
					c-0.1-0.2-0.2-0.5-0.3-1.1c-0.2-0.5-0.3-0.8-0.3-0.9c-0.1-0.2-0.3-0.4-0.7-0.4c-0.4-0.1-0.7-0.2-0.8-0.5c-0.1-0.4,0.1-0.7,0.5-1
					c0.6-0.4,1.3-0.8,2-1.2c0.7-0.4,1.3-0.6,1.8-0.7C66.2,26.8,66.4,27,66.5,27.3z M63.7,24c0.5-0.1,1-0.2,1.4-0.1
					c0.4,0.1,0.6,0.3,0.7,0.6c0.1,0.4,0,0.9-0.4,1.3c-0.6,0.6-1.5,1.1-2.6,1.3c-0.4,0.1-0.8,0.1-1.1,0c-0.4-0.1-0.7-0.4-0.8-0.7
					c-0.1-0.5,0.1-1,0.8-1.5C62.3,24.5,63,24.1,63.7,24z"/>
				<path class="st3" d="M73.3,25c1.1-0.3,2.1-0.2,3.1,0.1c0.9,0.3,1.5,0.8,1.6,1.6c0.1,0.5,0,1-0.3,1.4c-0.3,0.4-0.6,0.6-1.1,0.7
					c-0.5,0.1-0.9,0-1.3-0.3c-0.1-0.1-0.3-0.3-0.6-0.8c-0.3-0.5-0.7-0.6-1.1-0.5c-0.3,0.1-0.6,0.3-0.7,0.6c-0.2,0.3-0.2,0.7-0.1,1.1
					c0.2,0.7,0.6,1.3,1.3,1.7c0.5,0.3,1.1,0.4,1.8,0.3c0.3-0.1,0.6-0.2,0.7-0.3c0.2-0.1,0.4-0.3,0.7-0.5c0.1-0.1,0.2-0.1,0.3-0.1
					c0.2,0,0.4,0,0.6,0.2c0.2,0.2,0.3,0.4,0.4,0.6c0.1,0.3,0,0.6-0.1,0.9c-0.2,0.3-0.4,0.7-0.7,1c-0.7,0.7-1.5,1.1-2.6,1.4
					c-1.2,0.3-2.4,0.2-3.5-0.3c-1.3-0.6-2.2-1.6-2.6-3c-0.3-1.3-0.1-2.6,0.8-3.7C70.7,26.1,71.8,25.3,73.3,25z"/>
				<path class="st3" d="M83.3,23.3c0.5,2.1,0.7,3.1,1.1,5.1c0.1,0.4,0.2,0.7,0.3,0.9c0.1,0.2,0.3,0.3,0.6,0.4
					c0.2,0.1,0.4,0.2,0.5,0.2c0.1,0.1,0.1,0.2,0.2,0.3c0.2,0.8-0.7,1.4-2.7,1.8c-1.1,0.2-1.9,0.4-2.6,0.3c-0.2,0-0.4-0.1-0.6-0.2
					c-0.2-0.1-0.3-0.3-0.3-0.5c0-0.2,0-0.3,0-0.4c0-0.1,0.2-0.3,0.4-0.5c0.2-0.2,0.2-0.4,0.2-0.8c0-0.3-0.1-0.8-0.2-1.4
					c0-0.2-0.1-0.6-0.3-1.1c-0.2-0.5-0.2-0.8-0.3-0.9c-0.1-0.2-0.3-0.4-0.6-0.4c-0.4-0.1-0.7-0.3-0.7-0.6c-0.1-0.4,0.1-0.7,0.6-1
					c0.6-0.4,1.3-0.8,2.1-1.2c0.8-0.4,1.3-0.6,1.8-0.7C83,22.8,83.2,22.9,83.3,23.3z M80.5,19.8c0.5-0.1,1-0.1,1.4,0
					c0.4,0.1,0.6,0.3,0.6,0.7c0.1,0.5-0.1,0.9-0.5,1.2c-0.7,0.6-1.5,1-2.6,1.3c-0.5,0.1-0.8,0.1-1.1,0c-0.4-0.1-0.7-0.4-0.7-0.8
					c-0.1-0.5,0.2-1,0.9-1.5C79.2,20.3,79.9,20,80.5,19.8z"/>
				<path class="st3" d="M95.1,17.5c0.6,3.2,1,4.9,1.6,8.1c0.1,0.5,0.2,0.8,0.2,0.9c0.1,0.1,0.2,0.2,0.4,0.3
					c0.2,0.1,0.4,0.2,0.5,0.3c0.1,0.1,0.2,0.2,0.2,0.4c0.1,0.5-0.3,0.9-1.3,1.4c-0.8,0.4-1.7,0.7-2.6,0.9c-0.2,0-0.3,0-0.4,0
					c-0.1,0-0.1-0.2-0.2-0.4c-0.1-0.3-0.2-0.4-0.4-0.4c-0.1,0-0.2,0.1-0.4,0.4c-0.5,0.6-1.2,1-1.9,1.2c-0.9,0.2-1.9,0-2.8-0.5
					c-0.5-0.3-1-0.7-1.4-1.2c-0.5-0.6-0.9-1.3-1-2c-0.2-0.8-0.1-1.7,0.2-2.6c0.3-0.8,0.8-1.5,1.5-2c0.6-0.5,1.2-0.8,1.8-0.9
					c0.7-0.2,1.4-0.1,2,0.1c0.1,0,0.2,0,0.2,0c0.2,0,0.2-0.3,0.1-0.8c0-0.2-0.1-0.4-0.3-0.5c-0.1-0.1-0.3-0.2-0.6-0.2
					c-0.4,0-0.7-0.2-0.7-0.5c-0.1-0.4,0.3-0.9,1.1-1.3c1.5-0.7,2.5-1.2,3.1-1.3C94.7,16.8,95,17,95.1,17.5z M91,23
					c-0.4,0.1-0.7,0.4-0.8,0.8c-0.2,0.6-0.2,1.4,0,2.2c0.2,0.8,0.4,1.4,0.8,1.7c0.3,0.2,0.6,0.3,1,0.3c0.4-0.1,0.6-0.4,0.7-0.8
					c0.1-0.5,0-1.2-0.2-2.2c-0.2-0.9-0.4-1.5-0.7-1.8C91.6,23,91.3,22.9,91,23z"/>
				<path class="st3" d="M102.5,18.7c1.1-0.2,2.1-0.1,2.9,0.3c0.4,0.2,0.8,0.5,1,0.8c0.2,0.3,0.4,0.8,0.5,1.4
					c0.1,0.5,0.1,0.8,0.2,1.3c0.2,0.9,0.3,1.5,0.5,1.8c0.1,0.1,0.2,0.2,0.2,0.2c0.1,0,0.2,0,0.4,0s0.3,0.1,0.4,0.3
					c0,0.3,0,0.6-0.2,1c-0.2,0.3-0.4,0.7-0.8,0.9c-0.4,0.3-0.9,0.6-1.4,0.6c-0.6,0.1-1.2,0-1.6-0.4c-0.2-0.1-0.3-0.2-0.4-0.2
					c-0.1,0-0.3,0.1-0.4,0.3c-0.5,0.5-1.2,0.9-2,1c-0.8,0.1-1.5,0.1-2-0.1c-0.4-0.2-0.7-0.4-0.9-0.7c-0.3-0.3-0.4-0.7-0.5-1.1
					c-0.1-0.6,0-1.2,0.5-1.8c0.7-0.9,1.8-1.5,3.4-1.8c0.4-0.1,0.6-0.1,0.7-0.2c0.1-0.1,0.1-0.3,0.1-0.5c-0.1-0.6-0.3-1.1-0.5-1.3
					c-0.2-0.3-0.4-0.4-0.7-0.3c-0.2,0-0.3,0.1-0.5,0.3c-0.1,0.1-0.3,0.4-0.4,0.7c-0.4,0.9-0.9,1.3-1.5,1.5c-0.3,0.1-0.6,0-0.8-0.1
					c-0.2-0.1-0.4-0.3-0.4-0.6c-0.1-0.3,0-0.6,0.2-0.9c0.2-0.3,0.5-0.6,0.8-0.9C100.1,19.5,101.2,19,102.5,18.7z M102.8,24
					c-0.3,0-0.5,0.2-0.6,0.5c-0.2,0.3-0.2,0.5-0.2,0.8c0.1,0.3,0.2,0.5,0.3,0.7c0.2,0.1,0.4,0.2,0.6,0.2c0.5-0.1,0.7-0.5,0.5-1.3
					c-0.1-0.3-0.1-0.5-0.2-0.6C103.1,24,103,24,102.8,24z"/>
				<path class="st3" d="M118.6,13.5c0.5,3.3,0.7,4.9,1.2,8.2c0.1,0.5,0.1,0.8,0.2,0.9c0.1,0.1,0.2,0.2,0.4,0.3
					c0.2,0.1,0.4,0.2,0.5,0.3c0.1,0.1,0.2,0.2,0.2,0.4c0.1,0.5-0.4,0.9-1.3,1.3c-0.9,0.4-1.7,0.6-2.6,0.7c-0.2,0-0.3,0-0.4,0
					c-0.1,0-0.1-0.2-0.2-0.4c-0.1-0.3-0.2-0.4-0.4-0.4c-0.1,0-0.3,0.1-0.4,0.3c-0.5,0.6-1.2,0.9-2,1.1c-0.9,0.2-1.9-0.1-2.7-0.6
					c-0.5-0.3-1-0.8-1.3-1.2c-0.5-0.6-0.8-1.3-0.9-2c-0.1-0.8,0-1.7,0.3-2.6c0.3-0.8,0.8-1.5,1.6-2c0.6-0.4,1.2-0.7,1.8-0.8
					c0.7-0.1,1.4-0.1,2,0.2c0.1,0,0.2,0,0.2,0c0.2,0,0.3-0.3,0.2-0.8c0-0.2-0.1-0.4-0.2-0.5c-0.1-0.1-0.3-0.2-0.6-0.2
					c-0.4-0.1-0.6-0.2-0.7-0.5c-0.1-0.4,0.3-0.9,1.2-1.2c1.5-0.7,2.6-1,3.1-1.1C118.2,12.8,118.5,13,118.6,13.5z M114.2,18.7
					c-0.4,0.1-0.7,0.3-0.9,0.8c-0.2,0.6-0.3,1.3-0.1,2.2c0.1,0.8,0.4,1.4,0.7,1.8c0.3,0.3,0.6,0.4,0.9,0.3c0.4-0.1,0.7-0.3,0.8-0.8
					c0.1-0.5,0.1-1.2-0.1-2.2c-0.1-0.9-0.3-1.5-0.6-1.8C114.8,18.8,114.5,18.7,114.2,18.7z"/>
				<path class="st3" d="M130.8,14.5c0.4-0.1,0.8-0.1,1-0.1c0.3,0,0.8,0,1.5,0.1c0.2,0,0.4,0,0.6,0c0.2,0,0.6-0.1,1-0.3
					c0.4-0.2,0.7-0.3,0.9-0.3c0.6-0.1,0.9,0.1,0.9,0.5c0,0.2,0,0.5,0,0.8c0,0.6,0,1.4,0.1,2.6c0.1,1.2,0.2,2.2,0.3,3.2
					c0.1,1.2,0.3,2,0.4,2.5c0.1,0.2,0.1,0.4,0.2,0.5c0.1,0.1,0.2,0.2,0.4,0.3c0.3,0.2,0.4,0.4,0.5,0.7c0.1,0.8-0.7,1.2-2.3,1.4
					c-1.2,0.1-2.3,0.1-3.1-0.2c-0.3-0.1-0.5-0.2-0.7-0.4c-0.2-0.2-0.3-0.4-0.3-0.6c0-0.2,0-0.3,0.1-0.4c0.1-0.1,0.3-0.2,0.6-0.4
					c0.3-0.2,0.5-0.6,0.4-1.1c0-0.3-0.1-0.4-0.3-0.4c-0.1,0-0.3,0.1-0.7,0.4c-0.4,0.2-0.9,0.4-1.5,0.5c-1.2,0.1-2.2-0.1-3.1-0.9
					c-0.9-0.8-1.4-1.9-1.6-3.2c-0.2-1.4,0.2-2.5,1.1-3.5C127.8,15.3,129.1,14.7,130.8,14.5z M131.3,16.4c-0.3,0-0.5,0.2-0.7,0.5
					c-0.3,0.4-0.3,1-0.2,1.8c0.1,0.9,0.4,1.6,0.8,2.1c0.3,0.4,0.7,0.6,1,0.5c0.3,0,0.5-0.2,0.6-0.5c0.1-0.3,0.1-0.9,0-1.8
					c-0.1-0.8-0.2-1.4-0.3-1.7s-0.2-0.6-0.4-0.7C131.7,16.5,131.5,16.4,131.3,16.4z"/>
				<path class="st3" d="M142.8,13.7c0.2,2,0.3,2.9,0.5,4.9c0.1,1,0.5,1.5,1.2,1.5c0.2,0,0.4-0.1,0.5-0.2c0.2-0.1,0.3-0.2,0.3-0.4
					c0.1-0.3,0.1-1,0-1.9c-0.1-1-0.2-1.7-0.3-2c0-0.1-0.1-0.3-0.2-0.3c-0.1-0.1-0.2-0.1-0.4-0.2c-0.4-0.1-0.6-0.4-0.6-0.6
					c0-0.4,0.2-0.7,0.9-0.9c1.1-0.4,2.3-0.6,3.4-0.7c0.6-0.1,1,0.2,1,0.9c0,0.1,0,0.2,0,0.4c0,0.3,0,0.6,0.1,1.1
					c0.1,1.6,0.2,2.4,0.3,4c0,0.2,0.2,0.4,0.6,0.5c0.3,0.1,0.5,0.3,0.5,0.6c0,0.5-0.6,1-1.9,1.4c-0.8,0.2-1.5,0.4-2.2,0.5
					c-0.3,0-0.5,0-0.6,0c-0.1-0.1-0.2-0.2-0.2-0.4c-0.1-0.4-0.2-0.5-0.4-0.5c-0.1,0-0.1,0-0.2,0.1c-0.1,0-0.2,0.2-0.5,0.4
					c-0.6,0.5-1.2,0.7-1.9,0.8c-1.2,0.1-2.1-0.1-2.6-0.7c-0.5-0.5-0.8-1.4-0.9-2.8c-0.1-0.5-0.1-0.9-0.1-1.3c0-0.2,0-0.3,0-0.4
					c-0.1-0.5-0.1-0.9-0.3-1.1c-0.1-0.2-0.3-0.4-0.6-0.5c-0.3-0.1-0.4-0.2-0.5-0.2c-0.1-0.1-0.1-0.2-0.1-0.3c0-0.5,0.3-0.8,1-1
					c1.2-0.4,2.4-0.6,3.7-0.8C142.6,13.3,142.8,13.4,142.8,13.7z"/>
				<path class="st3" d="M159.8,16.8c-1.8,0.1-2.6,0.2-4.4,0.3c-0.2,0-0.3,0.1-0.3,0.3c0,0.4,0.3,0.7,0.7,1.1
					c0.5,0.3,0.9,0.5,1.4,0.4c0.3,0,0.6-0.1,1-0.2c0.4-0.1,0.6-0.3,0.9-0.5c0.2-0.2,0.4-0.2,0.5-0.2c0.2,0,0.3,0.1,0.5,0.3
					c0.2,0.2,0.3,0.4,0.3,0.6c0,0.4-0.2,0.9-0.8,1.3c-0.9,0.8-2,1.2-3.3,1.3c-1.3,0.1-2.4-0.2-3.3-0.9c-0.5-0.3-0.8-0.7-1.2-1.2
					c-0.4-0.6-0.7-1.4-0.7-2.1c-0.1-1,0.2-1.9,0.7-2.8c0.5-0.7,1.2-1.3,2-1.7c0.6-0.3,1.3-0.5,2.1-0.5c1.2-0.1,2.2,0.2,3.1,0.8
					c0.4,0.3,0.8,0.7,1.1,1.1c0.3,0.5,0.5,1,0.5,1.5c0,0.4,0,0.7-0.2,1C160.2,16.7,160,16.8,159.8,16.8z M155.5,15.4
					c0.4,0,0.6,0,0.9-0.1c0.4,0,0.6-0.2,0.6-0.6c0-0.3-0.1-0.6-0.3-0.8c-0.2-0.2-0.5-0.3-0.8-0.3c-0.4,0-0.6,0.2-0.8,0.5
					c-0.2,0.3-0.2,0.5-0.2,0.8c0,0.2,0.1,0.3,0.2,0.4C155.1,15.4,155.3,15.4,155.5,15.4z"/>
				<path class="st3" d="M169.6,11.4c0.3,0,0.8,0,1.5,0.1c0.1,0,0.3,0,0.4,0c0.1,0,0.3-0.1,0.6-0.2c0.1-0.1,0.3-0.1,0.4-0.1
					c0.3,0,0.6,0.2,0.9,0.5c0.2,0.3,0.5,0.6,0.6,0.9c0.2,0.3,0.2,0.6,0.3,0.9c0,0.2-0.1,0.4-0.2,0.6c-0.2,0.2-0.4,0.3-0.7,0.3
					c-0.2,0-0.4,0-0.6-0.1c-0.2-0.1-0.5-0.3-0.9-0.6c-0.4-0.4-0.8-0.5-1-0.5c-0.2,0-0.3,0.1-0.4,0.2c-0.1,0.1-0.2,0.3-0.2,0.4
					c0,0.3,0.3,0.6,0.9,0.8c1.1,0.4,1.9,0.9,2.5,1.4c0.5,0.4,0.7,1,0.8,1.7c0,0.8-0.3,1.5-1.1,2.1c-0.6,0.5-1.4,0.8-2.4,0.8
					c-0.2,0-0.7,0-1.3-0.1c-0.6,0-0.9-0.1-1-0.1c-0.1,0-0.2,0-0.3,0c-0.2,0-0.3,0-0.4,0.1c-0.3,0-0.5,0-0.7-0.2
					c-0.3-0.2-0.5-0.6-0.8-1c-0.2-0.5-0.4-0.9-0.4-1.2c0-0.6,0.2-0.8,0.6-0.9c0.2,0,0.3,0,0.5,0.1c0.2,0.1,0.5,0.4,1,0.9
					c0.3,0.3,0.5,0.4,0.7,0.5s0.4,0.1,0.5,0.1c0.2,0,0.4-0.1,0.5-0.2c0.1-0.1,0.2-0.3,0.2-0.4c0-0.3-0.3-0.5-0.7-0.7
					c-1-0.4-1.8-0.9-2.2-1.4c-0.5-0.5-0.7-1.1-0.8-1.7c0-0.7,0.2-1.3,0.6-1.9C167.6,11.8,168.5,11.4,169.6,11.4z"/>
				<path class="st3" d="M183.8,16c-1.8,0-2.6,0-4.4,0.1c-0.2,0-0.3,0.1-0.3,0.3c0,0.4,0.2,0.8,0.7,1.1c0.4,0.3,0.9,0.5,1.4,0.5
					c0.3,0,0.6-0.1,1-0.2c0.4-0.1,0.7-0.3,0.9-0.4c0.2-0.1,0.4-0.2,0.5-0.2c0.2,0,0.3,0.1,0.5,0.3c0.2,0.2,0.2,0.4,0.2,0.6
					c0,0.4-0.3,0.9-0.8,1.3c-1,0.7-2.1,1.1-3.4,1.1c-1.3,0-2.4-0.3-3.3-1c-0.4-0.4-0.8-0.8-1.1-1.3c-0.4-0.7-0.6-1.4-0.6-2.1
					c0-1,0.3-1.9,0.9-2.8c0.5-0.7,1.2-1.3,2.1-1.6c0.6-0.3,1.3-0.4,2.1-0.4c1.2,0,2.2,0.3,3.1,0.9c0.4,0.3,0.8,0.7,1,1.1
					c0.3,0.5,0.5,1,0.5,1.5c0,0.4-0.1,0.7-0.2,1C184.3,15.8,184.1,16,183.8,16z M179.7,14.3c0.4,0,0.6,0,0.9,0
					c0.4,0,0.6-0.2,0.6-0.5c0-0.3-0.1-0.6-0.3-0.8c-0.2-0.2-0.5-0.3-0.8-0.3c-0.4,0-0.6,0.1-0.8,0.4c-0.2,0.3-0.3,0.5-0.3,0.8
					c0,0.2,0.1,0.3,0.1,0.4C179.3,14.3,179.4,14.3,179.7,14.3z"/>
				<path class="st3" d="M194.8,11.1c0.4,0,0.5,0.3,0.5,0.7c0,0,0,0.1,0,0.2c0,0.1,0,0.2,0,0.2c0,0.3,0.1,0.5,0.3,0.5
					c0.1,0,0.3-0.1,0.5-0.4c0.3-0.4,0.8-0.7,1.3-0.9c0.5-0.2,1.1-0.3,1.6-0.3c1.1,0,1.8,0.4,2.2,1.2c0.2,0.3,0.3,0.4,0.4,0.4
					c0.1,0,0.2-0.1,0.5-0.3c0.8-0.7,1.8-1.1,2.8-1.1c0.8,0,1.5,0.3,2,0.7c0.5,0.5,0.8,1.1,0.7,2c0,0.2,0,0.5-0.1,1
					c0,0.2,0,0.6-0.1,1.4c0,0.5,0,0.9,0,1.1c0,0.1,0,0.2,0,0.3c0,0.4,0.1,0.7,0.3,1c0.1,0.2,0.2,0.3,0.3,0.4c0,0.1,0,0.1,0,0.2
					c0,0.8-1,1.1-2.8,1.1c-0.8,0-1.5-0.1-2-0.4c-0.5-0.2-0.7-0.5-0.7-0.8c0-0.1,0-0.2,0.1-0.3c0-0.1,0.2-0.2,0.4-0.5
					c0.2-0.2,0.3-1.1,0.4-2.5c0-0.8,0-1.4-0.1-1.7c-0.1-0.4-0.4-0.6-0.8-0.6c-0.2,0-0.4,0.1-0.6,0.2c-0.2,0.1-0.3,0.3-0.3,0.5
					c-0.1,0.2-0.1,0.8-0.1,1.7c0,1,0,1.6,0.1,1.8c0,0.2,0.2,0.5,0.4,0.9c0.1,0.1,0.1,0.2,0.1,0.3c0,0.7-1,1-2.9,1
					c-1.2,0-1.9-0.1-2.3-0.3c-0.3-0.1-0.5-0.4-0.5-0.7c0-0.2,0-0.3,0.1-0.3c0-0.1,0.2-0.2,0.4-0.4c0.1-0.1,0.2-0.2,0.3-0.4
					c0-0.1,0.1-0.3,0.1-0.6c0.1-0.7,0.1-1.3,0.1-2c0-1.2-0.3-1.8-0.9-1.8c-0.5,0-0.8,0.2-0.8,0.7c-0.1,0.5-0.1,1.2-0.1,2
					c0,0.7,0,1.1,0,1.3c0,0.2,0.1,0.4,0.2,0.6c0.1,0.3,0.2,0.5,0.2,0.6c0,0.4-0.3,0.7-0.9,0.8c-0.6,0.2-1.3,0.2-2,0.2
					c-1,0-1.7-0.1-2.1-0.2c-0.4-0.1-0.7-0.4-0.7-0.7c0-0.1,0-0.2,0.1-0.3c0.1-0.1,0.2-0.2,0.4-0.4c0.3-0.2,0.4-0.6,0.5-1
					c0.1-0.7,0.1-1.5,0.1-2.3c0-0.6,0-1-0.1-1.2s-0.2-0.4-0.4-0.5c-0.2-0.1-0.3-0.2-0.4-0.3c-0.1-0.1-0.1-0.2-0.1-0.3
					c0-0.4,0.3-0.7,1-1C192.8,11.3,194,11.1,194.8,11.1z"/>
				<path class="st3" d="M217.3,16.8c-1.8-0.1-2.6-0.1-4.4-0.2c-0.2,0-0.3,0.1-0.3,0.2c0,0.4,0.2,0.8,0.6,1.1
					c0.4,0.4,0.9,0.6,1.4,0.6c0.3,0,0.6,0,1-0.1c0.4-0.1,0.7-0.2,0.9-0.4c0.2-0.1,0.4-0.2,0.5-0.2c0.2,0,0.3,0.1,0.5,0.3
					c0.1,0.2,0.2,0.4,0.2,0.6c0,0.4-0.3,0.8-0.9,1.2c-1,0.7-2.2,1-3.5,0.9c-1.3-0.1-2.4-0.5-3.2-1.3c-0.4-0.4-0.7-0.8-1-1.4
					c-0.3-0.7-0.5-1.4-0.5-2.2c0-1,0.4-1.9,1.1-2.7c0.6-0.7,1.3-1.2,2.2-1.5c0.7-0.2,1.4-0.3,2.1-0.3c1.2,0.1,2.2,0.4,3,1.1
					c0.4,0.3,0.7,0.8,1,1.2c0.3,0.5,0.4,1,0.4,1.5c0,0.4-0.1,0.7-0.3,0.9C217.8,16.7,217.6,16.8,217.3,16.8z M213.2,14.8
					c0.4,0,0.6,0,0.9,0c0.4,0,0.6-0.1,0.6-0.5c0-0.3-0.1-0.6-0.2-0.8c-0.2-0.2-0.4-0.3-0.7-0.3c-0.4,0-0.6,0.1-0.8,0.4
					c-0.2,0.2-0.3,0.5-0.3,0.7c0,0.2,0,0.3,0.1,0.4C212.8,14.8,213,14.8,213.2,14.8z"/>
				<path class="st3" d="M223.5,12.2c0.3,0,0.5,0.1,0.6,0.2c0.1,0.1,0.1,0.4,0.1,0.9c0,0.3,0.1,0.4,0.3,0.4c0.1,0,0.3-0.1,0.4-0.2
					c0.6-0.7,1.2-1,2.1-1c0.6,0,1,0.3,1.4,0.6c0.2,0.2,0.3,0.4,0.4,0.7c0.1,0.3,0.1,0.6,0.1,0.8c0,0.3-0.1,0.6-0.3,0.9
					c-0.2,0.3-0.4,0.5-0.6,0.7c-0.4,0.3-0.9,0.5-1.5,0.4c-0.3,0-0.6-0.1-0.8-0.2c-0.2-0.1-0.5-0.4-0.8-0.7c-0.1-0.1-0.2-0.2-0.4-0.2
					c-0.2,0-0.3,0.1-0.4,0.3c-0.1,0.2-0.1,0.6-0.2,1.2c-0.1,0.9-0.1,1.5,0,1.9c0,0.2,0.1,0.3,0.2,0.4c0.1,0.1,0.2,0.2,0.5,0.2
					c0.5,0.2,0.8,0.5,0.8,0.9c0,0.2-0.1,0.5-0.3,0.6c-0.2,0.2-0.4,0.3-0.7,0.3c-0.6,0.1-1.5,0.1-2.6,0c-1.1-0.1-1.9-0.2-2.5-0.4
					c-0.5-0.2-0.7-0.5-0.7-0.9c0-0.3,0.2-0.6,0.6-0.8c0.2-0.1,0.3-0.2,0.4-0.3c0.1-0.1,0.1-0.2,0.2-0.4c0.1-0.5,0.2-1.6,0.3-3
					c0-0.3,0-0.5-0.1-0.6c-0.1-0.1-0.2-0.2-0.4-0.3c-0.4-0.2-0.6-0.5-0.6-0.8c0-0.3,0.2-0.5,0.5-0.7c0.3-0.2,0.9-0.4,1.6-0.5
					C222,12.3,222.8,12.2,223.5,12.2z"/>
				<path class="st3" d="M237.5,18.4c-1.8-0.2-2.6-0.3-4.4-0.4c-0.2,0-0.3,0.1-0.3,0.2c0,0.4,0.2,0.8,0.6,1.2
					c0.4,0.4,0.9,0.6,1.4,0.7c0.3,0,0.6,0,1-0.1c0.4-0.1,0.7-0.2,0.9-0.3c0.2-0.1,0.4-0.2,0.5-0.2c0.2,0,0.3,0.1,0.4,0.3
					c0.1,0.2,0.2,0.4,0.2,0.6c0,0.4-0.4,0.8-1,1.2c-1.1,0.6-2.2,0.9-3.5,0.7c-1.3-0.1-2.3-0.6-3.2-1.4c-0.4-0.4-0.7-0.9-0.9-1.4
					c-0.3-0.7-0.4-1.4-0.4-2.2c0.1-1,0.5-1.9,1.2-2.6c0.6-0.7,1.4-1.1,2.2-1.4c0.7-0.2,1.4-0.3,2.1-0.2c1.2,0.1,2.2,0.5,2.9,1.3
					c0.4,0.4,0.7,0.8,0.9,1.3c0.2,0.5,0.3,1,0.3,1.5c0,0.4-0.2,0.7-0.4,0.9C238,18.3,237.7,18.4,237.5,18.4z M233.5,16.3
					c0.4,0,0.6,0.1,0.9,0.1c0.4,0,0.6-0.1,0.6-0.5c0-0.3,0-0.6-0.2-0.8c-0.2-0.2-0.4-0.3-0.7-0.4c-0.4,0-0.6,0.1-0.9,0.3
					c-0.2,0.2-0.3,0.5-0.3,0.7c0,0.2,0,0.3,0.1,0.4C233.1,16.2,233.3,16.3,233.5,16.3z"/>
				<path class="st3" d="M244.9,14.2c1.1,0.1,2.1,0.5,2.9,1.1c0.7,0.6,1.1,1.3,1,2c-0.1,0.5-0.3,0.9-0.7,1.2
					c-0.4,0.3-0.8,0.4-1.3,0.3c-0.5-0.1-0.9-0.3-1.1-0.7c-0.1-0.1-0.2-0.4-0.3-0.9c-0.1-0.5-0.4-0.8-0.9-0.9c-0.3,0-0.6,0.1-0.9,0.3
					c-0.3,0.3-0.4,0.6-0.5,1c-0.1,0.7,0.1,1.4,0.6,2c0.4,0.5,0.9,0.8,1.6,0.9c0.3,0,0.6,0,0.8,0c0.2,0,0.5-0.1,0.9-0.2
					c0.1,0,0.2,0,0.3,0c0.2,0,0.4,0.1,0.5,0.4c0.1,0.2,0.2,0.4,0.2,0.7c0,0.3-0.2,0.5-0.4,0.8c-0.3,0.3-0.6,0.5-1,0.7
					c-0.9,0.4-1.8,0.5-2.9,0.4c-1.3-0.1-2.3-0.6-3.1-1.4c-1-1-1.5-2.3-1.4-3.7c0.1-1.4,0.8-2.4,2-3.2
					C242.1,14.3,243.4,14,244.9,14.2z"/>
				<path class="st3" d="M257.6,20.8c-1.7-0.3-2.6-0.4-4.4-0.6c-0.2,0-0.3,0-0.3,0.2c-0.1,0.4,0.1,0.8,0.5,1.2
					c0.4,0.4,0.8,0.6,1.3,0.7c0.3,0,0.6,0,1,0c0.4-0.1,0.7-0.2,1-0.3c0.2-0.1,0.4-0.2,0.5-0.1c0.2,0,0.3,0.1,0.4,0.4
					c0.1,0.2,0.2,0.4,0.1,0.6c-0.1,0.4-0.4,0.8-1,1.1c-1.1,0.6-2.3,0.8-3.5,0.6c-1.3-0.2-2.3-0.7-3.1-1.5c-0.4-0.4-0.7-0.9-0.9-1.4
					c-0.3-0.7-0.4-1.5-0.3-2.2c0.1-1,0.6-1.9,1.3-2.6c0.6-0.6,1.4-1.1,2.3-1.3c0.7-0.2,1.4-0.2,2.1-0.1c1.2,0.2,2.2,0.6,2.9,1.4
					c0.4,0.4,0.7,0.8,0.8,1.3c0.2,0.5,0.3,1.1,0.2,1.5c-0.1,0.4-0.2,0.7-0.4,0.9C258.1,20.8,257.9,20.9,257.6,20.8z M253.7,18.6
					c0.4,0.1,0.6,0.1,0.9,0.1c0.4,0.1,0.6-0.1,0.7-0.4c0-0.3,0-0.6-0.2-0.8c-0.2-0.2-0.4-0.4-0.7-0.4c-0.3,0-0.6,0-0.9,0.3
					c-0.2,0.2-0.3,0.5-0.4,0.7c0,0.2,0,0.3,0.1,0.4C253.3,18.5,253.5,18.5,253.7,18.6z"/>
				<path class="st3" d="M269.8,20.1c-0.2,1.2-0.3,1.8-0.5,3c-0.1,0.4,0,0.7,0.1,0.9c0.1,0.3,0.4,0.4,0.6,0.5c0.2,0,0.6,0,1-0.2
					c0.1,0,0.2,0,0.3,0c0.1,0,0.3,0.1,0.4,0.3c0.1,0.2,0.1,0.4,0.1,0.6c-0.1,0.4-0.3,0.7-0.8,1c-1,0.6-2.1,0.7-3.3,0.5
					c-1-0.2-1.7-0.6-2.2-1.2c-0.5-0.6-0.7-1.4-0.6-2.3c0.3-1.7,0.4-2.5,0.7-4.1c0-0.1,0-0.2,0-0.3c0,0-0.1-0.1-0.3-0.1
					c-0.4-0.1-0.6-0.1-1-0.2c-0.2,0-0.3-0.1-0.3-0.1c0-0.1,0-0.2,0-0.4c0-0.2,0-0.2,0.1-0.4c0-0.2,0.1-0.3,0.3-0.4
					c1.9-0.8,2.8-1.1,4.7-1.9c0.1,0,0.3,0,0.4,0c0.3,0.1,0.5,0.1,0.8,0.1c0.2,0,0.3,0.1,0.3,0.2c0,0.1,0,0.2,0,0.4
					c-0.1,0.5-0.1,0.7-0.2,1.2c0,0.2,0,0.3,0,0.4c0,0.1,0.2,0.1,0.4,0.1c0.7,0.1,1,0.2,1.7,0.3c0.2,0,0.4,0.1,0.4,0.2
					c0.1,0.1,0.1,0.3,0,0.5c0,0.2-0.1,0.3-0.1,0.5c0,0.3-0.1,0.5-0.2,0.6c-0.1,0.1-0.3,0.1-0.5,0.1c-0.7-0.1-1-0.2-1.7-0.3
					c-0.2,0-0.3,0-0.4,0C269.9,19.8,269.8,19.9,269.8,20.1z"/>
				<path class="st3" d="M278.6,19.8c-0.4,1.9-0.5,2.9-0.9,4.8c-0.2,1,0.1,1.6,0.8,1.7c0.2,0,0.4,0,0.6,0c0.2-0.1,0.3-0.2,0.4-0.3
					c0.2-0.3,0.4-0.9,0.6-1.9c0.2-1,0.3-1.6,0.3-2c0-0.2,0-0.3-0.1-0.3c0-0.1-0.2-0.2-0.3-0.3c-0.3-0.2-0.5-0.5-0.4-0.8
					c0.1-0.4,0.4-0.6,1.1-0.6c1.2-0.1,2.4,0,3.5,0.3c0.6,0.1,0.9,0.5,0.8,1.1c0,0.1,0,0.2-0.1,0.4c-0.1,0.3-0.1,0.6-0.2,1
					c-0.3,1.6-0.5,2.3-0.8,3.9c0,0.2,0.1,0.4,0.4,0.7c0.3,0.2,0.4,0.4,0.3,0.7c-0.1,0.5-0.8,0.8-2.2,0.8c-0.8,0-1.6,0-2.3-0.2
					c-0.3-0.1-0.5-0.1-0.6-0.2c-0.1-0.1-0.1-0.2-0.1-0.4c0-0.4,0-0.6-0.2-0.6c-0.1,0-0.1,0-0.2,0c-0.1,0-0.3,0.1-0.6,0.3
					c-0.7,0.3-1.4,0.4-2.1,0.2c-1.2-0.2-1.9-0.7-2.3-1.4c-0.3-0.6-0.4-1.6-0.1-2.9c0.1-0.5,0.2-0.9,0.2-1.2c0-0.2,0.1-0.3,0.1-0.4
					c0.1-0.5,0.1-0.9,0.1-1.2c-0.1-0.3-0.2-0.5-0.4-0.7c-0.2-0.2-0.4-0.3-0.4-0.4c-0.1-0.1-0.1-0.2,0-0.3c0.1-0.5,0.5-0.7,1.2-0.7
					c1.3,0,2.5,0.1,3.7,0.3C278.5,19.3,278.6,19.5,278.6,19.8z"/>
				<path class="st3" d="M295.7,22.8c0.4,0.1,0.5,0.4,0.4,0.8c0,0,0,0.1,0,0.2c0,0.1,0,0.2-0.1,0.2c-0.1,0.3,0,0.5,0.2,0.5
					c0.1,0,0.3-0.1,0.6-0.3c0.4-0.3,0.9-0.5,1.5-0.6c0.6-0.1,1.1-0.1,1.6,0c1,0.2,1.7,0.8,1.9,1.6c0.1,0.3,0.2,0.5,0.3,0.5
					c0.1,0,0.3-0.1,0.6-0.2c1-0.6,2-0.7,3-0.5c0.8,0.2,1.4,0.6,1.8,1.1c0.4,0.6,0.5,1.3,0.3,2.1c0,0.2-0.1,0.5-0.3,0.9
					c0,0.1-0.2,0.6-0.4,1.4c-0.1,0.5-0.2,0.8-0.3,1c0,0.1-0.1,0.2-0.1,0.3c-0.1,0.4-0.1,0.7,0.1,1.1c0.1,0.2,0.2,0.3,0.2,0.4
					c0,0.1,0,0.1,0,0.2c-0.2,0.7-1.2,0.9-3,0.4c-0.8-0.2-1.4-0.5-1.9-0.8c-0.4-0.3-0.6-0.6-0.6-0.9c0-0.1,0.1-0.2,0.1-0.3
					c0-0.1,0.2-0.2,0.5-0.4c0.2-0.2,0.5-1,0.9-2.3c0.2-0.8,0.3-1.4,0.2-1.7c0-0.4-0.3-0.7-0.7-0.8c-0.2,0-0.4,0-0.6,0.1
					c-0.2,0.1-0.3,0.2-0.4,0.4c-0.1,0.2-0.3,0.8-0.5,1.7c-0.2,1-0.3,1.6-0.3,1.8c0,0.2,0.1,0.6,0.3,1c0,0.1,0,0.2,0,0.4
					c-0.2,0.7-1.2,0.8-3.1,0.4c-1.1-0.3-1.9-0.5-2.2-0.8c-0.3-0.2-0.4-0.5-0.3-0.8c0-0.1,0.1-0.2,0.1-0.3c0.1,0,0.2-0.2,0.5-0.3
					c0.2-0.1,0.3-0.2,0.3-0.3c0.1-0.1,0.1-0.3,0.2-0.6c0.2-0.6,0.4-1.3,0.5-1.9c0.3-1.2,0.1-1.8-0.5-1.9c-0.5-0.1-0.8,0.1-1,0.6
					c-0.2,0.4-0.4,1.1-0.6,2c-0.1,0.6-0.2,1.1-0.2,1.3c0,0.2,0,0.4,0.1,0.7c0.1,0.3,0.1,0.5,0.1,0.7c-0.1,0.4-0.4,0.6-1,0.6
					c-0.6,0-1.3,0-2-0.2c-0.9-0.2-1.6-0.4-2-0.7c-0.4-0.2-0.6-0.5-0.5-0.8c0-0.1,0.1-0.2,0.2-0.3c0.1-0.1,0.2-0.2,0.5-0.3
					c0.3-0.2,0.6-0.5,0.7-0.9c0.2-0.7,0.4-1.5,0.6-2.3c0.1-0.6,0.2-1,0.2-1.2c0-0.2-0.1-0.4-0.3-0.6c-0.2-0.2-0.3-0.3-0.3-0.4
					c0-0.1,0-0.2,0-0.3c0.1-0.4,0.5-0.6,1.2-0.7C293.7,22.7,295,22.7,295.7,22.8z"/>
				<path class="st3" d="M314.8,27.4c1.1,0.3,1.9,0.8,2.5,1.5c0.3,0.4,0.5,0.8,0.6,1.2c0.1,0.4,0,0.9-0.2,1.5
					c-0.2,0.5-0.2,0.8-0.4,1.3c-0.2,0.9-0.3,1.5-0.3,1.8c0,0.1,0.1,0.2,0.1,0.3c0.1,0.1,0.2,0.1,0.4,0.2c0.2,0.1,0.2,0.2,0.2,0.4
					c-0.1,0.3-0.3,0.5-0.6,0.8c-0.3,0.2-0.7,0.4-1.1,0.5c-0.5,0.1-1,0.1-1.5,0c-0.6-0.2-1.1-0.5-1.3-1c-0.1-0.2-0.2-0.3-0.3-0.3
					c-0.1,0-0.3,0-0.5,0.1c-0.7,0.3-1.5,0.3-2.2,0.1c-0.8-0.2-1.4-0.5-1.8-1c-0.3-0.3-0.4-0.6-0.5-1c-0.1-0.4-0.1-0.8,0-1.2
					c0.2-0.6,0.5-1.1,1.2-1.4c1-0.5,2.3-0.6,3.9-0.2c0.4,0.1,0.6,0.1,0.7,0.1c0.1,0,0.2-0.2,0.3-0.4c0.2-0.6,0.2-1.1,0.2-1.4
					c-0.1-0.3-0.2-0.5-0.6-0.6c-0.2,0-0.4,0-0.5,0c-0.2,0.1-0.4,0.2-0.7,0.4c-0.7,0.6-1.4,0.8-2,0.7c-0.3-0.1-0.5-0.2-0.7-0.4
					c-0.1-0.2-0.2-0.5-0.1-0.7c0.1-0.3,0.3-0.5,0.6-0.8c0.3-0.2,0.7-0.4,1.2-0.5C312.4,27.1,313.6,27.1,314.8,27.4z M312.9,32.3
					c-0.3-0.1-0.5,0-0.8,0.1c-0.3,0.2-0.4,0.4-0.5,0.7c-0.1,0.3-0.1,0.5,0,0.7c0.1,0.2,0.3,0.3,0.5,0.4c0.5,0.1,0.8-0.2,1-1
					c0.1-0.3,0.1-0.5,0.1-0.7C313.2,32.5,313.1,32.4,312.9,32.3z"/>
				<path class="st3" d="M323.9,30c0.3,0.1,0.8,0.3,1.4,0.6c0.1,0.1,0.2,0.1,0.3,0.1c0.1,0,0.3,0,0.7,0c0.2,0,0.3,0,0.4,0
					c0.3,0.1,0.5,0.3,0.7,0.8c0.1,0.3,0.3,0.7,0.3,1.1c0,0.4,0,0.7,0,0.9c-0.1,0.2-0.2,0.4-0.4,0.5c-0.2,0.1-0.5,0.1-0.7,0
					c-0.2-0.1-0.4-0.2-0.5-0.3c-0.1-0.1-0.3-0.4-0.6-0.9c-0.3-0.5-0.6-0.7-0.8-0.8c-0.2,0-0.3,0-0.5,0c-0.2,0.1-0.3,0.2-0.3,0.4
					c-0.1,0.3,0.1,0.6,0.6,1c0.9,0.7,1.5,1.5,1.9,2.1c0.3,0.6,0.4,1.2,0.2,1.8c-0.2,0.8-0.8,1.4-1.7,1.7c-0.8,0.3-1.6,0.3-2.5,0
					c-0.2-0.1-0.7-0.2-1.2-0.5c-0.6-0.2-0.9-0.4-1-0.4c-0.1,0-0.2,0-0.3-0.1c-0.2,0-0.3-0.1-0.4-0.1c-0.3-0.1-0.5-0.2-0.6-0.4
					c-0.2-0.3-0.3-0.7-0.4-1.2c-0.1-0.5-0.1-0.9,0-1.3c0.1-0.5,0.4-0.7,0.9-0.6c0.2,0,0.3,0.1,0.4,0.3c0.1,0.1,0.3,0.5,0.7,1.1
					c0.2,0.3,0.3,0.6,0.5,0.7c0.1,0.1,0.3,0.2,0.5,0.3c0.2,0.1,0.4,0.1,0.5,0c0.1-0.1,0.2-0.2,0.3-0.4c0.1-0.3-0.1-0.6-0.5-0.9
					c-0.8-0.7-1.4-1.4-1.7-2c-0.3-0.6-0.4-1.2-0.2-1.9c0.2-0.7,0.6-1.2,1.2-1.6C321.9,29.8,322.8,29.7,323.9,30z"/>
				<path class="st3" d="M334.4,33.1c1.1,0.3,2,0.9,2.6,1.7c0.6,0.7,0.8,1.5,0.6,2.2c-0.2,0.5-0.5,0.8-0.9,1
					c-0.4,0.2-0.9,0.2-1.4,0.1c-0.5-0.2-0.8-0.5-1-0.9c0-0.1-0.1-0.4-0.1-0.9c0-0.5-0.2-0.9-0.7-1c-0.3-0.1-0.7-0.1-1,0.2
					c-0.3,0.2-0.5,0.5-0.7,0.9c-0.2,0.7-0.1,1.4,0.2,2.1c0.3,0.6,0.7,0.9,1.4,1.1c0.3,0.1,0.6,0.1,0.8,0.2c0.2,0,0.5,0,0.9,0
					c0.1,0,0.2,0,0.3,0c0.2,0.1,0.4,0.2,0.5,0.4c0.1,0.2,0.1,0.5,0,0.7c-0.1,0.3-0.3,0.5-0.6,0.7c-0.3,0.2-0.7,0.4-1.1,0.5
					c-0.9,0.2-1.9,0.2-3-0.2c-1.2-0.4-2.2-1.1-2.8-2c-0.8-1.2-1.1-2.5-0.7-3.9c0.4-1.3,1.2-2.2,2.6-2.8
					C331.6,32.7,333,32.7,334.4,33.1z"/>
				<path class="st3" d="M344.7,36.5c1.1,0.4,2,1,2.6,1.8c0.5,0.6,0.8,1.3,0.9,2c0.1,0.8,0.1,1.5-0.2,2.2c-0.4,1.2-1.4,2.1-2.9,2.5
					c-1.4,0.4-2.8,0.4-4.3-0.1c-1.4-0.5-2.4-1.2-3.1-2.3c-0.6-1-0.7-2.2-0.3-3.4c0.4-1.4,1.3-2.3,2.7-2.8
					C341.6,35.9,343.1,35.9,344.7,36.5z M343.3,38.2c-0.3-0.1-0.5-0.1-0.7,0.1c-0.2,0.1-0.4,0.4-0.5,0.7c-0.1,0.3-0.2,0.8-0.3,1.5
					c-0.1,0.6-0.1,1.2,0,1.7c0,0.5,0.3,0.9,0.7,1c0.5,0.2,0.9-0.1,1.1-0.7c0.2-0.5,0.3-1,0.4-1.7c0.1-0.7,0.1-1.2,0-1.7
					C343.9,38.6,343.7,38.3,343.3,38.2z"/>
				<path class="st3" d="M354.6,42.4c-0.4,1.2-0.6,1.7-1,2.9c-0.1,0.3-0.1,0.7,0,0.9c0.1,0.3,0.3,0.5,0.6,0.6c0.2,0.1,0.6,0.1,1,0
					c0.1,0,0.2,0,0.3,0c0.1,0.1,0.2,0.2,0.3,0.4c0.1,0.2,0.1,0.4,0,0.6c-0.1,0.4-0.5,0.6-1,0.8c-1.1,0.4-2.2,0.3-3.4-0.1
					c-0.9-0.3-1.6-0.9-2-1.6c-0.4-0.7-0.4-1.5-0.1-2.3c0.6-1.6,0.8-2.4,1.4-3.9c0-0.1,0.1-0.2,0-0.3c0,0-0.1-0.1-0.2-0.1
					c-0.4-0.1-0.6-0.2-0.9-0.3c-0.2-0.1-0.3-0.1-0.3-0.2c0-0.1,0-0.2,0.1-0.4c0.1-0.2,0.1-0.2,0.1-0.4c0.1-0.2,0.2-0.3,0.3-0.3
					c2-0.4,3-0.6,5-1c0.1,0,0.3,0,0.4,0.1c0.3,0.1,0.4,0.2,0.7,0.3c0.2,0.1,0.2,0.1,0.3,0.2c0,0.1,0,0.2-0.1,0.4
					c-0.2,0.5-0.3,0.7-0.4,1.1c-0.1,0.2-0.1,0.3,0,0.4c0,0.1,0.2,0.1,0.3,0.2c0.7,0.2,1,0.4,1.7,0.6c0.2,0.1,0.4,0.2,0.4,0.3
					c0,0.1,0,0.3-0.1,0.5c-0.1,0.2-0.1,0.3-0.2,0.5c-0.1,0.3-0.2,0.4-0.3,0.5c-0.1,0.1-0.3,0.1-0.5,0c-0.7-0.2-1-0.4-1.6-0.6
					c-0.2-0.1-0.3-0.1-0.4,0S354.6,42.3,354.6,42.4z"/>
				<path class="st3" d="M363.8,43.3c1,0.4,1.8,1,2.4,1.8c0.3,0.4,0.4,0.8,0.4,1.2c0,0.4-0.1,0.9-0.3,1.5c-0.2,0.5-0.3,0.7-0.5,1.2
					c-0.3,0.9-0.5,1.5-0.5,1.8c0,0.1,0,0.3,0.1,0.3c0,0.1,0.2,0.1,0.3,0.2c0.2,0.1,0.2,0.3,0.1,0.5c-0.1,0.3-0.3,0.5-0.7,0.7
					c-0.3,0.2-0.7,0.3-1.2,0.4c-0.5,0.1-1,0-1.5-0.2c-0.6-0.2-1-0.6-1.2-1.2c-0.1-0.2-0.2-0.3-0.3-0.4c-0.1,0-0.3,0-0.5,0
					c-0.7,0.2-1.5,0.1-2.2-0.1c-0.8-0.3-1.3-0.7-1.7-1.2c-0.2-0.3-0.4-0.7-0.4-1.1c-0.1-0.4,0-0.8,0.1-1.2c0.2-0.6,0.7-1,1.3-1.3
					c1-0.4,2.4-0.3,3.9,0.2c0.3,0.1,0.6,0.2,0.7,0.2c0.1,0,0.2-0.2,0.3-0.4c0.2-0.6,0.3-1.1,0.3-1.4c0-0.3-0.2-0.5-0.5-0.6
					c-0.2-0.1-0.4-0.1-0.5,0c-0.2,0-0.4,0.2-0.7,0.4c-0.8,0.5-1.5,0.7-2.1,0.4c-0.3-0.1-0.5-0.3-0.6-0.5c-0.1-0.2-0.1-0.5,0-0.7
					c0.1-0.3,0.3-0.5,0.6-0.7c0.3-0.2,0.7-0.3,1.2-0.4C361.4,42.7,362.6,42.9,363.8,43.3z M361.3,48c-0.3-0.1-0.5-0.1-0.8,0
					c-0.3,0.1-0.5,0.3-0.6,0.6c-0.1,0.3-0.1,0.5,0,0.7c0.1,0.2,0.2,0.4,0.4,0.5c0.5,0.2,0.9-0.1,1.1-0.9c0.1-0.3,0.2-0.5,0.1-0.7
					C361.6,48.2,361.5,48.1,361.3,48z"/>
			</g>
		</g>
	</g>
</g>
</svg>
